<svg xmlns="http://www.w3.org/2000/svg" width="34.85" height="36.838" viewBox="0 0 34.85 36.838"><g fill="#558DFA"><path d="M13.818 18.4l4.585-6.612a3.652 3.652 0 0 1 2.679-1.554 1.626 1.626 0 0 0-2.443-1.254l-1.096.639a1.63 1.63 0 0 0-2.258-2.176l-9.808 5.714 1.084-2.755a1.631 1.631 0 0 0-3.036-1.195S1.424 14.506.742 16.279c-.677 1.76-1.127 3.057-.274 4.522l1.969 3.379a4.328 4.328 0 0 0 4.875 1.992l-.364-5.847a3.647 3.647 0 0 1 6.87-1.925zm11.954-9.322a.909.909 0 0 0 1.284 0L31.5 4.634a.909.909 0 0 0-1.284-1.284l-4.444 4.444a.907.907 0 0 0 0 1.284zm-2.626-2.769a.908.908 0 0 0 1.14-.589l1.444-4.536A.909.909 0 0 0 24 .633l-1.444 4.535a.909.909 0 0 0 .59 1.141zM34.807 9.71a.908.908 0 0 0-1.141-.59l-4.535 1.444a.905.905 0 0 0-.542 1.255c.038.057.074.114.108.173.231.29.618.418.985.301l4.535-1.444a.906.906 0 0 0 .59-1.139z"/><path d="M28.34 21.713a1.83 1.83 0 0 0-1.776-.172l1.733-2.5a1.832 1.832 0 0 0-2.238-2.723l.995-1.436a1.833 1.833 0 1 0-3.012-2.09l-.812 1.172a1.833 1.833 0 0 0-3.335-1.142l-7.27 10.481-.207-3.321a1.832 1.832 0 1 0-3.659.228s.373 6.394.53 8.523c.159 2.162.306 3.648 1.871 4.734l3.613 2.505a4.856 4.856 0 0 0 6.756-1.222l7.273-10.488a1.83 1.83 0 0 0-.462-2.549z"/></g></svg>