<svg xmlns="http://www.w3.org/2000/svg" width="33.818" height="35.472" viewBox="0 0 33.818 35.472"><path fill="#558DFA" d="M33.007 21.781c-.714 7.188-6.538 12.965-13.73 13.625-8.502.781-15.752-5.47-16.593-13.595H1.185c-.911 0-1.48-.986-1.025-1.774l3.352-5.804a1.183 1.183 0 0 1 2.049 0l3.351 5.804a1.183 1.183 0 0 1-1.025 1.774H6.583c.847 6.066 6.495 10.616 12.97 9.667 4.792-.702 8.678-4.482 9.493-9.256 1.219-7.146-4.28-13.364-11.203-13.364-2.245 0-4.412.651-6.273 1.885-.864.573-2.061.46-2.695-.36a1.933 1.933 0 0 1 .445-2.788 15.138 15.138 0 0 1 6.633-2.486v-2.2H14.4a.968.968 0 0 1-.967-.968V.967c0-.533.433-.967.967-.967h7.2c.534 0 .967.434.967.967v.975a.968.968 0 0 1-.967.968h-1.71v2.223c7.932 1.069 13.95 8.26 13.117 16.648zm.5-14.636L30.591 4.45a.967.967 0 0 0-1.367.054l-.771.835a.966.966 0 0 0 .054 1.366L31.424 9.4a.967.967 0 0 0 1.367-.054l.771-.834a.967.967 0 0 0-.055-1.367zm-15.71 3.702v9.459h9.365c0-5.76-4.371-9.459-9.365-9.459z"/></svg>