<svg xmlns="http://www.w3.org/2000/svg" width="25.825" height="25.79" viewBox="0 0 25.825 25.79"><g fill="#558DFA"><path d="M24.12 1.709a5.848 5.848 0 0 0-8.262 0l-4.475 4.475a.486.486 0 1 0 .688.688l4.475-4.475A4.835 4.835 0 0 1 19.988.978c1.305 0 2.527.504 3.442 1.42s1.42 2.138 1.42 3.442a4.833 4.833 0 0 1-1.42 3.442l-5.852 5.853a4.874 4.874 0 0 1-6.885 0 .486.486 0 1 0-.688.688c1.139 1.139 2.635 1.708 4.131 1.708s2.993-.569 4.131-1.708L24.12 9.97c1.099-1.1 1.705-2.566 1.705-4.131s-.606-3.031-1.705-4.13z"/><path d="M13.104 19.61l-3.787 3.787c-.915.915-2.138 1.42-3.442 1.42s-2.527-.505-3.442-1.42a4.874 4.874 0 0 1 0-6.885l5.508-5.508a4.875 4.875 0 0 1 6.885 0 .486.486 0 1 0 .688-.688 5.848 5.848 0 0 0-8.262 0l-5.509 5.508a5.797 5.797 0 0 0-1.705 4.131 5.8 5.8 0 0 0 1.705 4.13 5.803 5.803 0 0 0 4.131 1.705 5.797 5.797 0 0 0 4.131-1.705l3.787-3.787a.486.486 0 1 0-.688-.688z"/></g></svg>