<svg xmlns="http://www.w3.org/2000/svg" width="34.958" height="34.963" viewBox="0 0 34.958 34.963"><g fill="#FFF"><path d="M32.646 2.316c-3.087-3.088-8.112-3.089-11.2 0l-6.067 6.067a.66.66 0 1 0 .933.933l6.067-6.067a6.552 6.552 0 0 1 4.667-1.924c1.77 0 3.426.684 4.667 1.924a6.552 6.552 0 0 1 1.924 4.667 6.556 6.556 0 0 1-1.924 4.667l-7.933 7.935c-2.572 2.573-6.761 2.573-9.334 0a.66.66 0 0 0-.934.933 7.895 7.895 0 0 0 5.6 2.316 7.893 7.893 0 0 0 5.6-2.316l7.934-7.935c1.49-1.49 2.312-3.479 2.312-5.6s-.822-4.109-2.312-5.6z"/><path d="M17.712 26.584l-5.134 5.134c-1.24 1.241-2.897 1.925-4.667 1.925s-3.425-.684-4.667-1.925a6.608 6.608 0 0 1 0-9.334l7.467-7.467c2.573-2.573 6.761-2.571 9.334 0a.66.66 0 1 0 .933-.933c-3.087-3.088-8.112-3.089-11.2 0L2.31 21.452A7.86 7.86 0 0 0 0 27.051c0 2.122.821 4.11 2.312 5.6s3.479 2.312 5.6 2.312a7.86 7.86 0 0 0 5.6-2.312l5.134-5.133a.66.66 0 1 0-.934-.934z"/></g></svg>